<?xml version='1.0' encoding='UTF-8'?>
<!DOCTYPE svg PUBLIC "-//W3C//DTD SVG 1.0//EN" "http://www.w3.org/TR/2001/REC-SVG-20010904/DTD/svg10.dtd">
<svg viewBox="0 0 1972 360" xmlns="http://www.w3.org/2000/svg" xmlns:inkspace="http://www.inkscape.org/namespaces/inkscape" xmlns:xlink="http://www.w3.org/1999/xlink">
  <defs id="defs_block">
    <filter height="1.504" id="filter_blur" inkspace:collect="always" width="1.1575" x="-0.07875" y="-0.252">
      <feGaussianBlur id="feGaussianBlur3780" inkspace:collect="always" stdDeviation="4.2" />
    </filter>
  </defs>
  <title>blockdiag</title>
  <desc>blockdiag {
  orientation = portrait;
  default_shape = roundedbox;

  node_width = 148;
  //span_width = 40;

  statip_sup -&gt; statip_log;
  statip_sup -&gt; statip_registry;
  statip_sup -&gt; statip_keeper_sup;
  statip_sup -&gt; statip_state_log;
  statip_sup -&gt; statip_sender_sup;
  statip_sup -&gt; statip_reader_sup;

  statip_keeper_sup -&gt; statip_keeper_unrelated_sup;
  statip_keeper_sup -&gt; statip_keeper_related_sup;
  statip_keeper_unrelated_sup -&gt; statip_keeper_unrelated;
  statip_keeper_related_sup   -&gt; statip_keeper_related;

  statip_sender_sup -&gt; statip_sender_client_sup;
  statip_sender_sup -&gt; statip_sender_listen;
  statip_sender_client_sup -&gt; statip_sender_client;

  statip_reader_sup -&gt; statip_reader_client_sup;
  statip_reader_sup -&gt; statip_reader_listen;
  statip_reader_client_sup -&gt; statip_reader_client;

  statip_keeper_unrelated [stacked];
  statip_keeper_related   [stacked];
  statip_sender_client [stacked];
  statip_reader_client [stacked];
}

// vim:ft=dot
</desc>
  <path d="M 75 46 L 207 46 A8,8 0 0 1 215 54 L 215 78 A8,8 0 0 1 207 86 L 75 86 A8,8 0 0 1 67 78 L 67 54 A8,8 0 0 1 75 46" fill="rgb(0,0,0)" stroke="rgb(0,0,0)" style="filter:url(#filter_blur);opacity:0.7;fill-opacity:1" />
  <path d="M 75 126 L 207 126 A8,8 0 0 1 215 134 L 215 158 A8,8 0 0 1 207 166 L 75 166 A8,8 0 0 1 67 158 L 67 134 A8,8 0 0 1 75 126" fill="rgb(0,0,0)" stroke="rgb(0,0,0)" style="filter:url(#filter_blur);opacity:0.7;fill-opacity:1" />
  <path d="M 287 126 L 419 126 A8,8 0 0 1 427 134 L 427 158 A8,8 0 0 1 419 166 L 287 166 A8,8 0 0 1 279 158 L 279 134 A8,8 0 0 1 287 126" fill="rgb(0,0,0)" stroke="rgb(0,0,0)" style="filter:url(#filter_blur);opacity:0.7;fill-opacity:1" />
  <path d="M 499 126 L 631 126 A8,8 0 0 1 639 134 L 639 158 A8,8 0 0 1 631 166 L 499 166 A8,8 0 0 1 491 158 L 491 134 A8,8 0 0 1 499 126" fill="rgb(0,0,0)" stroke="rgb(0,0,0)" style="filter:url(#filter_blur);opacity:0.7;fill-opacity:1" />
  <path d="M 923 126 L 1055 126 A8,8 0 0 1 1063 134 L 1063 158 A8,8 0 0 1 1055 166 L 923 166 A8,8 0 0 1 915 158 L 915 134 A8,8 0 0 1 923 126" fill="rgb(0,0,0)" stroke="rgb(0,0,0)" style="filter:url(#filter_blur);opacity:0.7;fill-opacity:1" />
  <path d="M 1135 126 L 1267 126 A8,8 0 0 1 1275 134 L 1275 158 A8,8 0 0 1 1267 166 L 1135 166 A8,8 0 0 1 1127 158 L 1127 134 A8,8 0 0 1 1135 126" fill="rgb(0,0,0)" stroke="rgb(0,0,0)" style="filter:url(#filter_blur);opacity:0.7;fill-opacity:1" />
  <path d="M 1559 126 L 1691 126 A8,8 0 0 1 1699 134 L 1699 158 A8,8 0 0 1 1691 166 L 1559 166 A8,8 0 0 1 1551 158 L 1551 134 A8,8 0 0 1 1559 126" fill="rgb(0,0,0)" stroke="rgb(0,0,0)" style="filter:url(#filter_blur);opacity:0.7;fill-opacity:1" />
  <path d="M 499 206 L 631 206 A8,8 0 0 1 639 214 L 639 238 A8,8 0 0 1 631 246 L 499 246 A8,8 0 0 1 491 238 L 491 214 A8,8 0 0 1 499 206" fill="rgb(0,0,0)" stroke="rgb(0,0,0)" style="filter:url(#filter_blur);opacity:0.7;fill-opacity:1" />
  <path d="M 711 206 L 843 206 A8,8 0 0 1 851 214 L 851 238 A8,8 0 0 1 843 246 L 711 246 A8,8 0 0 1 703 238 L 703 214 A8,8 0 0 1 711 206" fill="rgb(0,0,0)" stroke="rgb(0,0,0)" style="filter:url(#filter_blur);opacity:0.7;fill-opacity:1" />
  <path d="M 507 294 L 639 294 A8,8 0 0 1 647 302 L 647 326 A8,8 0 0 1 639 334 L 507 334 A8,8 0 0 1 499 326 L 499 302 A8,8 0 0 1 507 294" fill="rgb(0,0,0)" stroke="rgb(0,0,0)" style="filter:url(#filter_blur);opacity:0.7;fill-opacity:1" />
  <path d="M 503 290 L 635 290 A8,8 0 0 1 643 298 L 643 322 A8,8 0 0 1 635 330 L 503 330 A8,8 0 0 1 495 322 L 495 298 A8,8 0 0 1 503 290" fill="rgb(0,0,0)" stroke="rgb(0,0,0)" style="filter:url(#filter_blur);opacity:0.7;fill-opacity:1" />
  <path d="M 499 286 L 631 286 A8,8 0 0 1 639 294 L 639 318 A8,8 0 0 1 631 326 L 499 326 A8,8 0 0 1 491 318 L 491 294 A8,8 0 0 1 499 286" fill="rgb(0,0,0)" stroke="rgb(0,0,0)" style="filter:url(#filter_blur);opacity:0.7;fill-opacity:1" />
  <path d="M 719 294 L 851 294 A8,8 0 0 1 859 302 L 859 326 A8,8 0 0 1 851 334 L 719 334 A8,8 0 0 1 711 326 L 711 302 A8,8 0 0 1 719 294" fill="rgb(0,0,0)" stroke="rgb(0,0,0)" style="filter:url(#filter_blur);opacity:0.7;fill-opacity:1" />
  <path d="M 715 290 L 847 290 A8,8 0 0 1 855 298 L 855 322 A8,8 0 0 1 847 330 L 715 330 A8,8 0 0 1 707 322 L 707 298 A8,8 0 0 1 715 290" fill="rgb(0,0,0)" stroke="rgb(0,0,0)" style="filter:url(#filter_blur);opacity:0.7;fill-opacity:1" />
  <path d="M 711 286 L 843 286 A8,8 0 0 1 851 294 L 851 318 A8,8 0 0 1 843 326 L 711 326 A8,8 0 0 1 703 318 L 703 294 A8,8 0 0 1 711 286" fill="rgb(0,0,0)" stroke="rgb(0,0,0)" style="filter:url(#filter_blur);opacity:0.7;fill-opacity:1" />
  <path d="M 1135 206 L 1267 206 A8,8 0 0 1 1275 214 L 1275 238 A8,8 0 0 1 1267 246 L 1135 246 A8,8 0 0 1 1127 238 L 1127 214 A8,8 0 0 1 1135 206" fill="rgb(0,0,0)" stroke="rgb(0,0,0)" style="filter:url(#filter_blur);opacity:0.7;fill-opacity:1" />
  <path d="M 1347 206 L 1479 206 A8,8 0 0 1 1487 214 L 1487 238 A8,8 0 0 1 1479 246 L 1347 246 A8,8 0 0 1 1339 238 L 1339 214 A8,8 0 0 1 1347 206" fill="rgb(0,0,0)" stroke="rgb(0,0,0)" style="filter:url(#filter_blur);opacity:0.7;fill-opacity:1" />
  <path d="M 1143 294 L 1275 294 A8,8 0 0 1 1283 302 L 1283 326 A8,8 0 0 1 1275 334 L 1143 334 A8,8 0 0 1 1135 326 L 1135 302 A8,8 0 0 1 1143 294" fill="rgb(0,0,0)" stroke="rgb(0,0,0)" style="filter:url(#filter_blur);opacity:0.7;fill-opacity:1" />
  <path d="M 1139 290 L 1271 290 A8,8 0 0 1 1279 298 L 1279 322 A8,8 0 0 1 1271 330 L 1139 330 A8,8 0 0 1 1131 322 L 1131 298 A8,8 0 0 1 1139 290" fill="rgb(0,0,0)" stroke="rgb(0,0,0)" style="filter:url(#filter_blur);opacity:0.7;fill-opacity:1" />
  <path d="M 1135 286 L 1267 286 A8,8 0 0 1 1275 294 L 1275 318 A8,8 0 0 1 1267 326 L 1135 326 A8,8 0 0 1 1127 318 L 1127 294 A8,8 0 0 1 1135 286" fill="rgb(0,0,0)" stroke="rgb(0,0,0)" style="filter:url(#filter_blur);opacity:0.7;fill-opacity:1" />
  <path d="M 1559 206 L 1691 206 A8,8 0 0 1 1699 214 L 1699 238 A8,8 0 0 1 1691 246 L 1559 246 A8,8 0 0 1 1551 238 L 1551 214 A8,8 0 0 1 1559 206" fill="rgb(0,0,0)" stroke="rgb(0,0,0)" style="filter:url(#filter_blur);opacity:0.7;fill-opacity:1" />
  <path d="M 1771 206 L 1903 206 A8,8 0 0 1 1911 214 L 1911 238 A8,8 0 0 1 1903 246 L 1771 246 A8,8 0 0 1 1763 238 L 1763 214 A8,8 0 0 1 1771 206" fill="rgb(0,0,0)" stroke="rgb(0,0,0)" style="filter:url(#filter_blur);opacity:0.7;fill-opacity:1" />
  <path d="M 1567 294 L 1699 294 A8,8 0 0 1 1707 302 L 1707 326 A8,8 0 0 1 1699 334 L 1567 334 A8,8 0 0 1 1559 326 L 1559 302 A8,8 0 0 1 1567 294" fill="rgb(0,0,0)" stroke="rgb(0,0,0)" style="filter:url(#filter_blur);opacity:0.7;fill-opacity:1" />
  <path d="M 1563 290 L 1695 290 A8,8 0 0 1 1703 298 L 1703 322 A8,8 0 0 1 1695 330 L 1563 330 A8,8 0 0 1 1555 322 L 1555 298 A8,8 0 0 1 1563 290" fill="rgb(0,0,0)" stroke="rgb(0,0,0)" style="filter:url(#filter_blur);opacity:0.7;fill-opacity:1" />
  <path d="M 1559 286 L 1691 286 A8,8 0 0 1 1699 294 L 1699 318 A8,8 0 0 1 1691 326 L 1559 326 A8,8 0 0 1 1551 318 L 1551 294 A8,8 0 0 1 1559 286" fill="rgb(0,0,0)" stroke="rgb(0,0,0)" style="filter:url(#filter_blur);opacity:0.7;fill-opacity:1" />
  <path d="M 72 40 L 204 40 A8,8 0 0 1 212 48 L 212 72 A8,8 0 0 1 204 80 L 72 80 A8,8 0 0 1 64 72 L 64 48 A8,8 0 0 1 72 40" fill="rgb(255,255,255)" stroke="rgb(0,0,0)" />
  <text fill="rgb(0,0,0)" font-family="sansserif" font-size="11" font-style="normal" font-weight="normal" x="108" y="66">statip_sup</text>
  <path d="M 72 120 L 204 120 A8,8 0 0 1 212 128 L 212 152 A8,8 0 0 1 204 160 L 72 160 A8,8 0 0 1 64 152 L 64 128 A8,8 0 0 1 72 120" fill="rgb(255,255,255)" stroke="rgb(0,0,0)" />
  <text fill="rgb(0,0,0)" font-family="sansserif" font-size="11" font-style="normal" font-weight="normal" x="108" y="146">statip_log</text>
  <path d="M 284 120 L 416 120 A8,8 0 0 1 424 128 L 424 152 A8,8 0 0 1 416 160 L 284 160 A8,8 0 0 1 276 152 L 276 128 A8,8 0 0 1 284 120" fill="rgb(255,255,255)" stroke="rgb(0,0,0)" />
  <text fill="rgb(0,0,0)" font-family="sansserif" font-size="11" font-style="normal" font-weight="normal" x="305" y="146">statip_registry</text>
  <path d="M 496 120 L 628 120 A8,8 0 0 1 636 128 L 636 152 A8,8 0 0 1 628 160 L 496 160 A8,8 0 0 1 488 152 L 488 128 A8,8 0 0 1 496 120" fill="rgb(255,255,255)" stroke="rgb(0,0,0)" />
  <text fill="rgb(0,0,0)" font-family="sansserif" font-size="11" font-style="normal" font-weight="normal" x="511" y="146">statip_keeper_sup</text>
  <path d="M 920 120 L 1052 120 A8,8 0 0 1 1060 128 L 1060 152 A8,8 0 0 1 1052 160 L 920 160 A8,8 0 0 1 912 152 L 912 128 A8,8 0 0 1 920 120" fill="rgb(255,255,255)" stroke="rgb(0,0,0)" />
  <text fill="rgb(0,0,0)" font-family="sansserif" font-size="11" font-style="normal" font-weight="normal" x="938" y="146">statip_state_log</text>
  <path d="M 1132 120 L 1264 120 A8,8 0 0 1 1272 128 L 1272 152 A8,8 0 0 1 1264 160 L 1132 160 A8,8 0 0 1 1124 152 L 1124 128 A8,8 0 0 1 1132 120" fill="rgb(255,255,255)" stroke="rgb(0,0,0)" />
  <text fill="rgb(0,0,0)" font-family="sansserif" font-size="11" font-style="normal" font-weight="normal" x="1147" y="146">statip_sender_sup</text>
  <path d="M 1556 120 L 1688 120 A8,8 0 0 1 1696 128 L 1696 152 A8,8 0 0 1 1688 160 L 1556 160 A8,8 0 0 1 1548 152 L 1548 128 A8,8 0 0 1 1556 120" fill="rgb(255,255,255)" stroke="rgb(0,0,0)" />
  <text fill="rgb(0,0,0)" font-family="sansserif" font-size="11" font-style="normal" font-weight="normal" x="1571" y="146">statip_reader_sup</text>
  <path d="M 496 200 L 628 200 A8,8 0 0 1 636 208 L 636 232 A8,8 0 0 1 628 240 L 496 240 A8,8 0 0 1 488 232 L 488 208 A8,8 0 0 1 496 200" fill="rgb(255,255,255)" stroke="rgb(0,0,0)" />
  <text fill="rgb(0,0,0)" font-family="sansserif" font-size="11" font-style="normal" font-weight="normal" x="490" y="219">statip_keeper_unrelated_</text>
  <text fill="rgb(0,0,0)" font-family="sansserif" font-size="11" font-style="normal" font-weight="normal" x="553" y="232">sup</text>
  <path d="M 708 200 L 840 200 A8,8 0 0 1 848 208 L 848 232 A8,8 0 0 1 840 240 L 708 240 A8,8 0 0 1 700 232 L 700 208 A8,8 0 0 1 708 200" fill="rgb(255,255,255)" stroke="rgb(0,0,0)" />
  <text fill="rgb(0,0,0)" font-family="sansserif" font-size="11" font-style="normal" font-weight="normal" x="702" y="219">statip_keeper_related_su</text>
  <text fill="rgb(0,0,0)" font-family="sansserif" font-size="11" font-style="normal" font-weight="normal" x="771" y="232">p</text>
  <path d="M 504 288 L 636 288 A8,8 0 0 1 644 296 L 644 320 A8,8 0 0 1 636 328 L 504 328 A8,8 0 0 1 496 320 L 496 296 A8,8 0 0 1 504 288" fill="rgb(255,255,255)" stroke="rgb(0,0,0)" />
  <path d="M 500 284 L 632 284 A8,8 0 0 1 640 292 L 640 316 A8,8 0 0 1 632 324 L 500 324 A8,8 0 0 1 492 316 L 492 292 A8,8 0 0 1 500 284" fill="rgb(255,255,255)" stroke="rgb(0,0,0)" />
  <path d="M 496 280 L 628 280 A8,8 0 0 1 636 288 L 636 312 A8,8 0 0 1 628 320 L 496 320 A8,8 0 0 1 488 312 L 488 288 A8,8 0 0 1 496 280" fill="rgb(255,255,255)" stroke="rgb(0,0,0)" />
  <text fill="rgb(0,0,0)" font-family="sansserif" font-size="11" font-style="normal" font-weight="normal" x="493" y="306">statip_keeper_unrelated</text>
  <path d="M 716 288 L 848 288 A8,8 0 0 1 856 296 L 856 320 A8,8 0 0 1 848 328 L 716 328 A8,8 0 0 1 708 320 L 708 296 A8,8 0 0 1 716 288" fill="rgb(255,255,255)" stroke="rgb(0,0,0)" />
  <path d="M 712 284 L 844 284 A8,8 0 0 1 852 292 L 852 316 A8,8 0 0 1 844 324 L 712 324 A8,8 0 0 1 704 316 L 704 292 A8,8 0 0 1 712 284" fill="rgb(255,255,255)" stroke="rgb(0,0,0)" />
  <path d="M 708 280 L 840 280 A8,8 0 0 1 848 288 L 848 312 A8,8 0 0 1 840 320 L 708 320 A8,8 0 0 1 700 312 L 700 288 A8,8 0 0 1 708 280" fill="rgb(255,255,255)" stroke="rgb(0,0,0)" />
  <text fill="rgb(0,0,0)" font-family="sansserif" font-size="11" font-style="normal" font-weight="normal" x="711" y="306">statip_keeper_related</text>
  <path d="M 1132 200 L 1264 200 A8,8 0 0 1 1272 208 L 1272 232 A8,8 0 0 1 1264 240 L 1132 240 A8,8 0 0 1 1124 232 L 1124 208 A8,8 0 0 1 1132 200" fill="rgb(255,255,255)" stroke="rgb(0,0,0)" />
  <text fill="rgb(0,0,0)" font-family="sansserif" font-size="11" font-style="normal" font-weight="normal" x="1126" y="226">statip_sender_client_sup</text>
  <path d="M 1344 200 L 1476 200 A8,8 0 0 1 1484 208 L 1484 232 A8,8 0 0 1 1476 240 L 1344 240 A8,8 0 0 1 1336 232 L 1336 208 A8,8 0 0 1 1344 200" fill="rgb(255,255,255)" stroke="rgb(0,0,0)" />
  <text fill="rgb(0,0,0)" font-family="sansserif" font-size="11" font-style="normal" font-weight="normal" x="1350" y="226">statip_sender_listen</text>
  <path d="M 1140 288 L 1272 288 A8,8 0 0 1 1280 296 L 1280 320 A8,8 0 0 1 1272 328 L 1140 328 A8,8 0 0 1 1132 320 L 1132 296 A8,8 0 0 1 1140 288" fill="rgb(255,255,255)" stroke="rgb(0,0,0)" />
  <path d="M 1136 284 L 1268 284 A8,8 0 0 1 1276 292 L 1276 316 A8,8 0 0 1 1268 324 L 1136 324 A8,8 0 0 1 1128 316 L 1128 292 A8,8 0 0 1 1136 284" fill="rgb(255,255,255)" stroke="rgb(0,0,0)" />
  <path d="M 1132 280 L 1264 280 A8,8 0 0 1 1272 288 L 1272 312 A8,8 0 0 1 1264 320 L 1132 320 A8,8 0 0 1 1124 312 L 1124 288 A8,8 0 0 1 1132 280" fill="rgb(255,255,255)" stroke="rgb(0,0,0)" />
  <text fill="rgb(0,0,0)" font-family="sansserif" font-size="11" font-style="normal" font-weight="normal" x="1138" y="306">statip_sender_client</text>
  <path d="M 1556 200 L 1688 200 A8,8 0 0 1 1696 208 L 1696 232 A8,8 0 0 1 1688 240 L 1556 240 A8,8 0 0 1 1548 232 L 1548 208 A8,8 0 0 1 1556 200" fill="rgb(255,255,255)" stroke="rgb(0,0,0)" />
  <text fill="rgb(0,0,0)" font-family="sansserif" font-size="11" font-style="normal" font-weight="normal" x="1550" y="226">statip_reader_client_sup</text>
  <path d="M 1768 200 L 1900 200 A8,8 0 0 1 1908 208 L 1908 232 A8,8 0 0 1 1900 240 L 1768 240 A8,8 0 0 1 1760 232 L 1760 208 A8,8 0 0 1 1768 200" fill="rgb(255,255,255)" stroke="rgb(0,0,0)" />
  <text fill="rgb(0,0,0)" font-family="sansserif" font-size="11" font-style="normal" font-weight="normal" x="1774" y="226">statip_reader_listen</text>
  <path d="M 1564 288 L 1696 288 A8,8 0 0 1 1704 296 L 1704 320 A8,8 0 0 1 1696 328 L 1564 328 A8,8 0 0 1 1556 320 L 1556 296 A8,8 0 0 1 1564 288" fill="rgb(255,255,255)" stroke="rgb(0,0,0)" />
  <path d="M 1560 284 L 1692 284 A8,8 0 0 1 1700 292 L 1700 316 A8,8 0 0 1 1692 324 L 1560 324 A8,8 0 0 1 1552 316 L 1552 292 A8,8 0 0 1 1560 284" fill="rgb(255,255,255)" stroke="rgb(0,0,0)" />
  <path d="M 1556 280 L 1688 280 A8,8 0 0 1 1696 288 L 1696 312 A8,8 0 0 1 1688 320 L 1556 320 A8,8 0 0 1 1548 312 L 1548 288 A8,8 0 0 1 1556 280" fill="rgb(255,255,255)" stroke="rgb(0,0,0)" />
  <text fill="rgb(0,0,0)" font-family="sansserif" font-size="11" font-style="normal" font-weight="normal" x="1562" y="306">statip_reader_client</text>
  <path d="M 138 80 L 138 100" fill="none" stroke="rgb(0,0,0)" />
  <path d="M 138 100 L 986 100" fill="none" stroke="rgb(0,0,0)" />
  <path d="M 986 100 L 986 112" fill="none" stroke="rgb(0,0,0)" />
  <polygon fill="rgb(0,0,0)" points="986,119 982,112 990,112 986,119" stroke="rgb(0,0,0)" />
  <path d="M 138 80 L 138 112" fill="none" stroke="rgb(0,0,0)" />
  <polygon fill="rgb(0,0,0)" points="138,119 134,112 142,112 138,119" stroke="rgb(0,0,0)" />
  <path d="M 138 80 L 138 100" fill="none" stroke="rgb(0,0,0)" />
  <path d="M 138 100 L 1198 100" fill="none" stroke="rgb(0,0,0)" />
  <path d="M 1198 100 L 1198 112" fill="none" stroke="rgb(0,0,0)" />
  <polygon fill="rgb(0,0,0)" points="1198,119 1194,112 1202,112 1198,119" stroke="rgb(0,0,0)" />
  <path d="M 138 80 L 138 100" fill="none" stroke="rgb(0,0,0)" />
  <path d="M 138 100 L 1622 100" fill="none" stroke="rgb(0,0,0)" />
  <path d="M 1622 100 L 1622 112" fill="none" stroke="rgb(0,0,0)" />
  <polygon fill="rgb(0,0,0)" points="1622,119 1618,112 1626,112 1622,119" stroke="rgb(0,0,0)" />
  <path d="M 138 80 L 138 100" fill="none" stroke="rgb(0,0,0)" />
  <path d="M 138 100 L 562 100" fill="none" stroke="rgb(0,0,0)" />
  <path d="M 562 100 L 562 112" fill="none" stroke="rgb(0,0,0)" />
  <polygon fill="rgb(0,0,0)" points="562,119 558,112 566,112 562,119" stroke="rgb(0,0,0)" />
  <path d="M 138 80 L 138 100" fill="none" stroke="rgb(0,0,0)" />
  <path d="M 138 100 L 350 100" fill="none" stroke="rgb(0,0,0)" />
  <path d="M 350 100 L 350 112" fill="none" stroke="rgb(0,0,0)" />
  <polygon fill="rgb(0,0,0)" points="350,119 346,112 354,112 350,119" stroke="rgb(0,0,0)" />
  <path d="M 562 160 L 562 192" fill="none" stroke="rgb(0,0,0)" />
  <polygon fill="rgb(0,0,0)" points="562,199 558,192 566,192 562,199" stroke="rgb(0,0,0)" />
  <path d="M 562 160 L 562 180" fill="none" stroke="rgb(0,0,0)" />
  <path d="M 562 180 L 774 180" fill="none" stroke="rgb(0,0,0)" />
  <path d="M 774 180 L 774 192" fill="none" stroke="rgb(0,0,0)" />
  <polygon fill="rgb(0,0,0)" points="774,199 770,192 778,192 774,199" stroke="rgb(0,0,0)" />
  <path d="M 1198 160 L 1198 192" fill="none" stroke="rgb(0,0,0)" />
  <polygon fill="rgb(0,0,0)" points="1198,199 1194,192 1202,192 1198,199" stroke="rgb(0,0,0)" />
  <path d="M 1198 160 L 1198 180" fill="none" stroke="rgb(0,0,0)" />
  <path d="M 1198 180 L 1410 180" fill="none" stroke="rgb(0,0,0)" />
  <path d="M 1410 180 L 1410 192" fill="none" stroke="rgb(0,0,0)" />
  <polygon fill="rgb(0,0,0)" points="1410,199 1406,192 1414,192 1410,199" stroke="rgb(0,0,0)" />
  <path d="M 1622 160 L 1622 192" fill="none" stroke="rgb(0,0,0)" />
  <polygon fill="rgb(0,0,0)" points="1622,199 1618,192 1626,192 1622,199" stroke="rgb(0,0,0)" />
  <path d="M 1622 160 L 1622 180" fill="none" stroke="rgb(0,0,0)" />
  <path d="M 1622 180 L 1834 180" fill="none" stroke="rgb(0,0,0)" />
  <path d="M 1834 180 L 1834 192" fill="none" stroke="rgb(0,0,0)" />
  <polygon fill="rgb(0,0,0)" points="1834,199 1830,192 1838,192 1834,199" stroke="rgb(0,0,0)" />
  <path d="M 562 240 L 562 272" fill="none" stroke="rgb(0,0,0)" />
  <polygon fill="rgb(0,0,0)" points="562,279 558,272 566,272 562,279" stroke="rgb(0,0,0)" />
  <path d="M 774 240 L 774 272" fill="none" stroke="rgb(0,0,0)" />
  <polygon fill="rgb(0,0,0)" points="774,279 770,272 778,272 774,279" stroke="rgb(0,0,0)" />
  <path d="M 1198 240 L 1198 272" fill="none" stroke="rgb(0,0,0)" />
  <polygon fill="rgb(0,0,0)" points="1198,279 1194,272 1202,272 1198,279" stroke="rgb(0,0,0)" />
  <path d="M 1622 240 L 1622 272" fill="none" stroke="rgb(0,0,0)" />
  <polygon fill="rgb(0,0,0)" points="1622,279 1618,272 1626,272 1622,279" stroke="rgb(0,0,0)" />
</svg>
